# xmcd
#
# Track frame offsets:
#	150
#	15201
#	30288
#	46195
#	63476
#	81756
#	97974
#	113131
#	129453
#	145128
#	162473
#	178780
#
# Disc length: 2591 seconds
#
# Revision: 0
# Processed by: cddbd v1.5.2PL0 Copyright (c) Steve Scherf et al.
# Submitted via: dBpowerAMP V4.0
#
DISCID=8e0a1d0c
DTITLE=Casey Watt - Lead You Astray
DYEAR=2006
DGENRE=Country
TTITLE0=I Don`t Want To Work This Hard
TTITLE1=My Heart`s Always Calling Home
TTITLE2=Close the Door
TTITLE3=Daddy Says
TTITLE4=It`s All Coming Back To Me Now
TTITLE5=If I Needed You (with Brendan Radford)
TTITLE6=Lead You Astray
TTITLE7=You`re Gonna Get Hurt
TTITLE8=Not the Only One
TTITLE9=Carousel Cowboy
TTITLE10=Half the Fun
TTITLE11=Love Me Still
EXTD=
EXTT0=
EXTT1=
EXTT2=
EXTT3=
EXTT4=
EXTT5=
EXTT6=
EXTT7=
EXTT8=
EXTT9=
EXTT10=
EXTT11=
PLAYORDER=
